<svg id="visual" viewBox="0 0 960 540" width="960" height="540" xmlns="http://www.w3.org/2000/svg" xmlns:xlink="http://www.w3.org/1999/xlink" version="1.1"><path d="M0 168L53.3 159C106.7 150 213.3 132 320 124.8C426.7 117.7 533.3 121.3 640 118.7C746.7 116 853.3 107 906.7 102.5L960 98L960 0L906.7 0C853.3 0 746.7 0 640 0C533.3 0 426.7 0 320 0C213.3 0 106.7 0 53.3 0L0 0Z" fill="#588ef8"></path><path d="M0 309L53.3 317C106.7 325 213.3 341 320 353.5C426.7 366 533.3 375 640 376C746.7 377 853.3 370 906.7 366.5L960 363L960 96L906.7 100.5C853.3 105 746.7 114 640 116.7C533.3 119.3 426.7 115.7 320 122.8C213.3 130 106.7 148 53.3 157L0 166Z" fill="#0260ec"></path><path d="M0 541L53.3 541C106.7 541 213.3 541 320 541C426.7 541 533.3 541 640 541C746.7 541 853.3 541 906.7 541L960 541L960 361L906.7 364.5C853.3 368 746.7 375 640 374C533.3 373 426.7 364 320 351.5C213.3 339 106.7 323 53.3 315L0 307Z" fill="#0048ae"></path></svg>