<svg id="visual" viewBox="0 0 2560 1440" width="2560" height="1440" xmlns="http://www.w3.org/2000/svg" xmlns:xlink="http://www.w3.org/1999/xlink" version="1.1"><rect x="0" y="0" width="2560" height="1440" fill="#d6e8e4"></rect><path d="M0 911L47.3 933.8C94.7 956.7 189.3 1002.3 284.2 1037.2C379 1072 474 1096 568.8 1101.8C663.7 1107.7 758.3 1095.3 853.2 1084.2C948 1073 1043 1063 1137.8 1078.8C1232.7 1094.7 1327.3 1136.3 1422.2 1161C1517 1185.7 1612 1193.3 1706.8 1147.5C1801.7 1101.7 1896.3 1002.3 1991.2 999.2C2086 996 2181 1089 2275.8 1134.3C2370.7 1179.7 2465.3 1177.3 2512.7 1176.2L2560 1175L2560 1441L2512.7 1441C2465.3 1441 2370.7 1441 2275.8 1441C2181 1441 2086 1441 1991.2 1441C1896.3 1441 1801.7 1441 1706.8 1441C1612 1441 1517 1441 1422.2 1441C1327.3 1441 1232.7 1441 1137.8 1441C1043 1441 948 1441 853.2 1441C758.3 1441 663.7 1441 568.8 1441C474 1441 379 1441 284.2 1441C189.3 1441 94.7 1441 47.3 1441L0 1441Z" fill="#009473" stroke-linecap="round" stroke-linejoin="miter"></path></svg>